<svg xmlns="http://www.w3.org/2000/svg" xmlns:xlink="http://www.w3.org/1999/xlink" width="500" zoomAndPan="magnify" viewBox="0 0 375 374.999991" height="500" preserveAspectRatio="xMidYMid meet" version="1.0"><defs><clipPath id="880ce187ad"><path d="M 54.964844 34.777344 L 320.3125 34.777344 L 320.3125 341 L 54.964844 341 Z M 54.964844 34.777344 " clip-rule="nonzero"/></clipPath><clipPath id="e7164dd9f8"><path d="M 197.699219 332.042969 C 211.023438 332.042969 219.578125 329.527344 223.222656 324.421875 C 226.933594 319.320312 228.722656 310.699219 228.722656 298.566406 L 228.722656 216.292969 L 202.535156 216.292969 L 202.535156 206.945312 L 320.277344 206.945312 L 320.277344 216.292969 L 304.296875 216.292969 L 304.296875 335.890625 L 298.265625 335.890625 C 293.363281 328.796875 286.402344 325.285156 277.382812 325.285156 C 273.542969 325.285156 262.203125 327.800781 243.242188 332.90625 C 224.285156 338.011719 208.171875 340.53125 194.78125 340.53125 C 150.363281 340.53125 115.957031 328.070312 91.558594 303.207031 C 67.164062 278.347656 54.964844 240.953125 54.964844 191.035156 C 54.964844 141.113281 67.695312 102.597656 93.21875 75.480469 C 118.671875 48.367188 152.949219 34.777344 196.039062 34.777344 C 212.683594 34.777344 229.390625 36.960938 246.160156 41.339844 C 262.929688 45.71875 272.675781 47.902344 275.398438 47.902344 C 278.117188 47.902344 280.167969 47.238281 281.558594 45.980469 C 282.953125 44.722656 284.410156 42.53125 286.070312 39.417969 L 290.578125 39.417969 L 293.828125 131.433594 L 286.46875 131.433594 C 273.078125 103.988281 259.683594 82.441406 246.160156 66.730469 C 232.636719 51.019531 217.585938 43.195312 200.945312 43.195312 C 159.25 43.195312 138.367188 85.492188 138.367188 170.019531 L 138.367188 203.5 C 138.367188 245.929688 143.46875 277.949219 153.679688 299.558594 C 163.957031 321.238281 178.605469 332.042969 197.699219 332.042969 Z M 197.699219 332.042969 " clip-rule="nonzero"/></clipPath><clipPath id="2ffa92be7c"><path d="M 257.40625 138.714844 L 313 138.714844 L 313 204.921875 L 257.40625 204.921875 Z M 257.40625 138.714844 " clip-rule="nonzero"/></clipPath><clipPath id="b8a0859480"><path d="M 312.105469 138.714844 L 313.023438 162.449219 L 311.289062 162.449219 C 308.613281 154.070312 306.253906 148.347656 304.183594 145.289062 C 302.113281 142.234375 299.140625 140.710938 295.253906 140.710938 L 294.160156 140.710938 L 294.160156 202.910156 L 301.890625 202.910156 L 301.890625 204.898438 L 268.621094 204.898438 L 268.621094 202.910156 L 276.367188 202.910156 L 276.367188 140.695312 L 275.1875 140.695312 C 271.296875 140.695312 268.289062 142.289062 266.15625 145.464844 C 264.027344 148.664062 261.691406 154.320312 259.136719 162.449219 L 257.40625 162.449219 L 258.324219 138.714844 Z M 312.105469 138.714844 " clip-rule="nonzero"/></clipPath><clipPath id="85dd54edbc"><path d="M 213.847656 138.714844 L 240.316406 138.714844 L 240.316406 151.5 L 213.847656 151.5 Z M 213.847656 151.5 L 227.304688 151.5 L 227.304688 164.398438 L 213.847656 164.398438 Z M 213.847656 164.398438 L 239.789062 164.398438 L 239.789062 176.847656 L 213.847656 176.847656 Z M 213.847656 176.847656 L 227.304688 176.847656 L 227.304688 191.996094 L 213.847656 191.996094 Z M 213.847656 191.996094 L 241.179688 191.996094 L 241.179688 204.898438 L 213.847656 204.898438 Z M 213.847656 191.996094 " clip-rule="nonzero"/></clipPath></defs><g clip-path="url(#880ce187ad)"><g clip-path="url(#e7164dd9f8)"><path fill="#d9d9d9" d="M 54.964844 34.777344 L 320.144531 34.777344 L 320.144531 340.398438 L 54.964844 340.398438 Z M 54.964844 34.777344 " fill-opacity="1" fill-rule="nonzero"/></g></g><g clip-path="url(#2ffa92be7c)"><g clip-path="url(#b8a0859480)"><path fill="#d9d9d9" d="M 257.40625 138.714844 L 312.976562 138.714844 L 312.976562 204.921875 L 257.40625 204.921875 Z M 257.40625 138.714844 " fill-opacity="1" fill-rule="nonzero"/></g></g><g clip-path="url(#85dd54edbc)"><path fill="#d9d9d9" d="M 213.847656 138.714844 L 241.203125 138.714844 L 241.203125 204.964844 L 213.847656 204.964844 Z M 213.847656 138.714844 " fill-opacity="1" fill-rule="nonzero"/></g><path fill="#d9d9d9" d="M 181.789062 258.988281 C 183.992188 259.457031 185.628906 260.402344 186.699219 261.816406 C 187.773438 263.21875 188.308594 265.136719 188.308594 267.570312 C 188.308594 270.984375 187.433594 273.628906 185.667969 275.511719 C 183.894531 277.382812 181.398438 278.316406 178.179688 278.316406 C 175.003906 278.316406 172.53125 277.398438 170.757812 275.550781 C 168.972656 273.695312 168.074219 271.117188 168.074219 267.816406 C 168.074219 266.488281 168.210938 265.136719 168.46875 263.773438 C 168.714844 262.414062 169.097656 261.03125 169.601562 259.628906 L 174.921875 259.628906 L 174.921875 261.648438 C 173.304688 261.847656 172.097656 262.320312 171.3125 263.074219 C 170.519531 263.832031 170.117188 264.898438 170.117188 266.269531 C 170.117188 268.042969 170.726562 269.3125 171.933594 270.066406 C 173.128906 270.824219 175.210938 271.199219 178.179688 271.199219 C 181.085938 271.199219 183.164062 270.839844 184.410156 270.105469 C 185.648438 269.363281 186.265625 268.164062 186.265625 266.496094 C 186.265625 265.21875 185.886719 264.199219 185.113281 263.425781 C 184.34375 262.640625 183.234375 262.164062 181.789062 262 Z M 181.789062 258.988281 " fill-opacity="1" fill-rule="nonzero"/><path fill="#d9d9d9" d="M 186.265625 244.988281 C 186.265625 243.640625 185.6875 242.695312 184.535156 242.160156 C 183.378906 241.613281 181.265625 241.335938 178.179688 241.335938 C 175.101562 241.335938 172.996094 241.613281 171.847656 242.160156 C 170.695312 242.695312 170.117188 243.640625 170.117188 244.988281 C 170.117188 246.347656 170.703125 247.3125 171.871094 247.875 C 173.023438 248.425781 175.128906 248.699219 178.179688 248.699219 C 181.25 248.699219 183.367188 248.425781 184.535156 247.875 C 185.6875 247.3125 186.265625 246.347656 186.265625 244.988281 Z M 188.308594 244.988281 C 188.308594 248.367188 187.417969 251.023438 185.628906 252.949219 C 183.828125 254.859375 181.347656 255.816406 178.179688 255.816406 C 175.019531 255.816406 172.546875 254.859375 170.757812 252.949219 C 168.972656 251.023438 168.074219 248.367188 168.074219 244.988281 C 168.074219 241.605469 168.972656 238.957031 170.757812 237.046875 C 172.546875 235.121094 175.019531 234.160156 178.179688 234.160156 C 181.347656 234.160156 183.828125 235.121094 185.628906 237.046875 C 187.417969 238.972656 188.308594 241.621094 188.308594 244.988281 Z M 188.308594 244.988281 " fill-opacity="1" fill-rule="nonzero"/><path fill="#d9d9d9" d="M 171.746094 210.253906 C 170.46875 209.375 169.539062 208.417969 168.960938 207.386719 C 168.375 206.34375 168.074219 205.128906 168.074219 203.734375 C 168.074219 201.539062 168.703125 199.894531 169.953125 198.804688 C 171.203125 197.722656 173.082031 197.175781 175.582031 197.175781 L 185.605469 197.175781 L 185.605469 194.433594 L 187.792969 194.433594 L 187.792969 205.859375 L 185.605469 205.859375 L 185.605469 203.570312 L 176.550781 203.570312 C 174.160156 203.570312 172.652344 203.753906 172.035156 204.125 C 171.40625 204.488281 171.085938 205.167969 171.085938 206.167969 C 171.085938 207.296875 171.53125 208.179688 172.40625 208.808594 C 173.273438 209.425781 174.511719 209.738281 176.117188 209.738281 L 185.605469 209.738281 L 185.605469 207.449219 L 187.792969 207.449219 L 187.792969 218.421875 L 185.605469 218.421875 L 185.605469 216.128906 L 176.550781 216.128906 C 174.160156 216.128906 172.652344 216.316406 172.035156 216.6875 C 171.40625 217.058594 171.085938 217.738281 171.085938 218.730469 C 171.085938 219.875 171.53125 220.761719 172.40625 221.390625 C 173.273438 222.007812 174.511719 222.316406 176.117188 222.316406 L 185.605469 222.316406 L 185.605469 220.027344 L 187.792969 220.027344 L 187.792969 231.433594 L 185.605469 231.433594 L 185.605469 228.710938 L 170.796875 228.710938 L 170.796875 231.433594 L 168.613281 231.433594 L 168.613281 222.316406 L 171.3125 222.316406 C 170.199219 221.574219 169.386719 220.726562 168.859375 219.761719 C 168.339844 218.800781 168.074219 217.652344 168.074219 216.316406 C 168.074219 214.765625 168.378906 213.5 168.984375 212.519531 C 169.574219 211.546875 170.5 210.789062 171.746094 210.253906 Z M 171.746094 210.253906 " fill-opacity="1" fill-rule="nonzero"/><path fill="#d9d9d9" d="M 177.253906 183.609375 L 179.152344 183.609375 C 181.394531 183.609375 183.019531 183.328125 184.019531 182.761719 C 185.007812 182.183594 185.503906 181.257812 185.503906 179.976562 C 185.503906 178.671875 184.976562 177.75 183.914062 177.214844 C 182.859375 176.675781 180.945312 176.410156 178.179688 176.410156 C 175.433594 176.410156 173.535156 176.675781 172.488281 177.214844 C 171.433594 177.75 170.902344 178.671875 170.902344 179.976562 C 170.902344 181.257812 171.40625 182.183594 172.40625 182.761719 C 173.394531 183.328125 175.015625 183.609375 177.253906 183.609375 Z M 170.796875 190 L 170.796875 192.746094 L 168.613281 192.746094 L 168.613281 183.609375 L 171.046875 183.609375 C 170.042969 183.070312 169.300781 182.347656 168.816406 181.441406 C 168.324219 180.523438 168.074219 179.390625 168.074219 178.039062 C 168.074219 175.304688 168.976562 173.152344 170.777344 171.582031 C 172.582031 170.015625 175.046875 169.230469 178.179688 169.230469 C 181.332031 169.230469 183.808594 170.015625 185.605469 171.582031 C 187.410156 173.152344 188.308594 175.304688 188.308594 178.039062 C 188.308594 179.390625 188.066406 180.523438 187.585938 181.441406 C 187.089844 182.347656 186.347656 183.070312 185.359375 183.609375 L 193.300781 183.609375 L 193.300781 180.660156 L 195.484375 180.660156 L 195.484375 192.746094 L 193.300781 192.746094 L 193.300781 190 Z M 170.796875 190 " fill-opacity="1" fill-rule="nonzero"/><path fill="#d9d9d9" d="M 176.015625 147.394531 L 185.605469 147.394531 L 185.605469 144.648438 L 187.792969 144.648438 L 187.792969 153.785156 L 185.359375 153.785156 C 186.363281 154.628906 187.105469 155.558594 187.585938 156.589844 C 188.066406 157.621094 188.308594 158.808594 188.308594 160.140625 C 188.308594 162.09375 187.789062 163.597656 186.742188 164.65625 C 185.683594 165.703125 184.179688 166.222656 182.222656 166.222656 C 180.070312 166.222656 178.449219 165.476562 177.378906 163.976562 C 176.304688 162.464844 175.769531 160.179688 175.769531 157.128906 L 175.769531 153.785156 L 174.632812 153.785156 C 173.082031 153.785156 171.941406 154.152344 171.210938 154.878906 C 170.46875 155.613281 170.097656 156.746094 170.097656 158.28125 C 170.097656 159.5625 170.359375 160.550781 170.878906 161.253906 C 171.40625 161.945312 172.257812 162.429688 173.4375 162.71875 L 173.4375 164.757812 L 169.3125 164.757812 C 168.898438 163.621094 168.589844 162.4375 168.382812 161.210938 C 168.179688 159.972656 168.074219 158.675781 168.074219 157.3125 C 168.074219 153.890625 168.714844 151.382812 169.992188 149.785156 C 171.273438 148.191406 173.28125 147.394531 176.015625 147.394531 Z M 181.769531 153.785156 L 177.914062 153.785156 L 177.914062 156.179688 C 177.914062 157.375 178.242188 158.292969 178.902344 158.921875 C 179.554688 159.554688 180.480469 159.871094 181.6875 159.871094 C 182.914062 159.871094 183.828125 159.644531 184.429688 159.191406 C 185.023438 158.726562 185.316406 158.015625 185.316406 157.066406 C 185.316406 156.074219 184.996094 155.289062 184.347656 154.695312 C 183.703125 154.089844 182.84375 153.785156 181.769531 153.785156 Z M 181.769531 153.785156 " fill-opacity="1" fill-rule="nonzero"/><path fill="#d9d9d9" d="M 187.792969 142.546875 L 185.605469 142.546875 L 185.605469 139.824219 L 170.796875 139.824219 L 170.796875 142.546875 L 168.613281 142.546875 L 168.613281 133.429688 L 171.3125 133.429688 C 170.171875 132.664062 169.347656 131.78125 168.839844 130.789062 C 168.332031 129.800781 168.074219 128.558594 168.074219 127.058594 C 168.074219 124.902344 168.714844 123.273438 169.992188 122.167969 C 171.261719 121.070312 173.125 120.519531 175.582031 120.519531 L 185.605469 120.519531 L 185.605469 117.777344 L 187.792969 117.777344 L 187.792969 129.242188 L 185.605469 129.242188 L 185.605469 126.914062 L 175.417969 126.914062 C 173.796875 126.914062 172.667969 127.121094 172.035156 127.53125 C 171.40625 127.945312 171.085938 128.667969 171.085938 129.699219 C 171.085938 130.976562 171.5625 131.917969 172.507812 132.523438 C 173.449219 133.132812 174.941406 133.429688 177.003906 133.429688 L 185.605469 133.429688 L 185.605469 131.078125 L 187.792969 131.078125 Z M 187.792969 142.546875 " fill-opacity="1" fill-rule="nonzero"/><path fill="#d9d9d9" d="M 192.125 105.410156 C 193.527344 105.984375 194.523438 106.6875 195.113281 107.511719 C 195.703125 108.328125 196 109.421875 196 110.792969 C 196 111.382812 195.929688 112.042969 195.796875 112.773438 C 195.671875 113.488281 195.484375 114.273438 195.238281 115.121094 L 191.214844 115.121094 L 191.238281 113.101562 C 192.171875 113.058594 192.855469 112.84375 193.300781 112.441406 C 193.738281 112.027344 193.960938 111.425781 193.960938 110.625 C 193.960938 109.84375 193.742188 109.214844 193.320312 108.730469 C 192.890625 108.25 192.085938 107.769531 190.90625 107.285156 L 190.226562 106.996094 L 170.796875 115.351562 L 170.796875 117.433594 L 168.613281 117.433594 L 168.613281 106.355469 L 170.796875 106.355469 L 170.796875 108.648438 L 182.140625 103.777344 L 170.796875 99.242188 L 170.796875 101.777344 L 168.613281 101.777344 L 168.613281 94.582031 L 170.796875 94.582031 L 170.796875 96.910156 Z M 192.125 105.410156 " fill-opacity="1" fill-rule="nonzero"/></svg>